<?xml version="1.0" standalone="no"?>
<!DOCTYPE svg PUBLIC "-//W3C//DTD SVG 20010904//EN"
 "http://www.w3.org/TR/2001/REC-SVG-20010904/DTD/svg10.dtd">
<svg version="1.0" xmlns="http://www.w3.org/2000/svg"
 viewBox="0 0 2600.000000 2600.000000"
 preserveAspectRatio="xMidYMid meet">
<metadata>
Created by potrace 1.15, written by Peter Selinger 2001-2017
</metadata>
<g transform="translate(0.000000,2600.000000) scale(0.100000,-0.100000)"
fill="#000000" stroke="none">
<path d="M12865 19105 c-331 -54 -609 -178 -855 -382 -309 -256 -514 -599
-602 -1003 -19 -92 -22 -134 -23 -335 0 -186 4 -246 18 -315 61 -284 158 -509
307 -710 415 -559 1099 -822 1769 -678 526 112 984 475 1211 961 284 607 197
1318 -227 1839 -80 98 -235 243 -343 321 -183 130 -438 239 -670 288 -138 28
-450 36 -585 14z"/>
<path d="M4625 16464 c-406 -60 -743 -225 -1019 -500 -296 -295 -469 -669
-507 -1098 -33 -370 74 -776 290 -1097 251 -373 633 -635 1072 -733 363 -81
744 -41 1089 114 361 163 660 451 838 807 340 678 201 1496 -345 2024 -242
234 -506 375 -849 455 -107 25 -141 28 -329 30 -115 1 -223 0 -240 -2z"/>
<path d="M20690 16464 c-480 -60 -918 -316 -1201 -704 -60 -82 -119 -175 -119
-189 0 -4 33 -73 74 -152 190 -369 264 -701 253 -1126 -5 -223 -31 -385 -91
-583 l-34 -113 92 -91 c407 -410 982 -587 1556 -480 132 25 339 97 468 164
577 299 942 895 942 1540 0 751 -481 1420 -1190 1654 -190 63 -281 77 -510 81
-113 2 -221 1 -240 -1z"/>
<path d="M17240 16099 c-215 -18 -415 -75 -625 -179 -183 -91 -303 -178 -450
-325 -260 -260 -416 -555 -492 -933 -13 -67 -18 -136 -17 -297 0 -190 2 -222
27 -336 75 -355 233 -646 486 -900 510 -510 1302 -647 1951 -338 598 285 974
846 1006 1504 26 507 -199 1032 -586 1372 -284 249 -636 400 -1010 433 -127
11 -151 11 -290 -1z"/>
<path d="M11430 15644 c-343 -102 -594 -342 -710 -679 l-17 -49 69 -106 c183
-280 302 -594 355 -931 24 -158 24 -501 0 -654 -34 -213 -86 -390 -172 -593
l-47 -111 47 -203 c25 -112 49 -211 51 -220 3 -9 24 -28 47 -41 73 -43 189
-141 269 -226 46 -48 80 -77 82 -69 2 7 20 80 39 161 96 392 306 764 602 1061
576 580 1410 811 2206 611 373 -94 731 -292 1026 -568 l63 -59 45 17 c51 20
59 28 69 69 6 24 -2 43 -42 110 -224 367 -336 765 -335 1196 1 333 60 628 185
914 l30 68 -39 40 c-104 109 -287 214 -457 263 -107 31 -127 31 -152 4 -10
-12 -55 -50 -99 -84 -249 -195 -563 -350 -856 -425 -237 -61 -563 -85 -800
-61 -339 35 -677 148 -966 322 -93 56 -305 212 -337 248 -24 27 -51 26 -156
-5z"/>
<path d="M8593 15274 c-584 -85 -1073 -444 -1328 -976 -131 -274 -191 -585
-166 -870 65 -749 561 -1353 1276 -1554 519 -146 1087 -33 1523 304 327 252
556 622 643 1038 40 195 40 471 -1 675 -147 727 -745 1287 -1480 1385 -129 17
-344 16 -467 -2z"/>
<path d="M13500 13083 c-19 -2 -84 -13 -143 -24 -534 -99 -1005 -461 -1242
-954 -196 -409 -227 -865 -86 -1295 146 -442 460 -805 877 -1014 580 -289
1252 -236 1789 143 130 91 338 306 428 441 133 201 221 413 269 652 20 96 23
143 23 318 0 232 -17 344 -81 538 -235 717 -915 1209 -1660 1200 -77 0 -155
-3 -174 -5z"/>
<path d="M3170 13001 c-132 -38 -223 -79 -321 -143 -409 -266 -572 -794 -498
-1603 28 -305 85 -603 219 -1155 221 -907 372 -1618 490 -2310 71 -420 139
-934 156 -1183 l7 -97 1611 2 1611 3 2 40 c5 78 35 371 48 475 l14 105 -55
270 c-90 440 -159 747 -319 1410 -143 595 -180 790 -227 1190 -20 176 -17 692
5 840 51 339 134 571 287 805 80 122 262 305 383 384 90 60 254 145 320 166
20 6 37 13 37 15 0 1 -25 43 -56 91 -108 172 -227 435 -270 596 l-18 68 -61
19 c-143 47 -127 49 -220 -30 -186 -156 -464 -317 -696 -403 -384 -141 -833
-173 -1249 -89 -370 74 -752 262 -1037 509 -33 30 -63 54 -65 53 -1 0 -46 -13
-98 -28z"/>
<path d="M19320 13020 c0 -5 5 -10 11 -10 5 0 7 5 4 10 -3 6 -8 10 -11 10 -2
0 -4 -4 -4 -10z"/>
<path d="M22389 12973 c-593 -506 -1399 -678 -2154 -458 -74 22 -156 53 -344
133 -8 3 9 -22 37 -57 197 -237 318 -528 379 -911 25 -163 25 -708 0 -923 -40
-332 -90 -591 -207 -1078 -214 -886 -377 -1741 -489 -2579 -31 -227 -71 -554
-71 -577 0 -10 303 -13 1480 -13 814 0 1480 1 1480 3 0 1 7 79 15 172 43 484
139 1100 295 1875 110 549 183 872 385 1705 131 541 182 874 192 1250 6 251
-4 402 -38 575 -93 464 -333 758 -727 890 -166 55 -160 55 -233 -7z"/>
<path d="M15725 12633 c-49 -14 -92 -27 -94 -29 -2 -2 13 -29 32 -61 281 -463
392 -1042 301 -1578 -60 -358 -217 -721 -433 -1004 -40 -51 -71 -94 -69 -96 2
-1 30 -10 62 -20 88 -25 242 -95 343 -156 432 -259 789 -729 1053 -1384 286
-708 488 -1665 586 -2777 l18 -198 738 0 738 0 0 38 c0 62 29 506 45 697 102
1189 308 2427 616 3699 121 501 166 736 206 1066 24 207 24 622 0 780 -92 590
-359 907 -875 1040 l-43 11 -62 -54 c-460 -399 -1093 -603 -1702 -547 -466 43
-917 230 -1275 529 -47 39 -87 71 -90 70 -3 0 -45 -12 -95 -26z"/>
<path d="M7215 11833 c-61 -15 -208 -69 -260 -96 -284 -143 -470 -390 -559
-744 -44 -175 -59 -318 -59 -563 0 -422 52 -766 223 -1471 360 -1480 587
-2695 651 -3476 l13 -153 588 0 c323 0 588 2 588 5 0 2 -14 28 -31 57 -86 146
-215 428 -276 603 -114 330 -130 615 -52 927 120 475 425 938 970 1473 524
514 1241 1039 2114 1550 l190 112 6 64 c13 131 9 512 -6 639 -73 589 -361 949
-853 1066 l-72 18 -38 -35 c-153 -145 -432 -315 -678 -414 -171 -69 -389 -122
-594 -146 -134 -15 -482 -6 -610 15 -412 71 -798 246 -1110 506 -81 67 -98 74
-145 63z"/>
<path d="M11720 9755 c-117 -33 -739 -407 -1178 -709 -1271 -874 -1970 -1654
-2088 -2329 -25 -140 -15 -320 25 -460 184 -641 664 -1319 1291 -1822 258
-207 352 -252 504 -242 46 3 104 14 135 26 57 21 161 86 161 99 0 4 -26 13
-57 21 -140 32 -369 141 -486 233 -140 109 -243 220 -334 359 -211 324 -281
719 -193 1087 l20 83 -42 82 c-52 104 -125 296 -133 350 -17 111 68 288 241
507 89 111 374 395 544 541 304 261 839 667 959 728 78 40 177 25 244 -38 54
-50 69 -94 79 -236 18 -271 69 -606 142 -922 55 -239 47 -222 124 -273 99 -66
277 -248 350 -358 148 -223 226 -458 239 -721 13 -263 -49 -522 -181 -754
l-44 -77 14 -72 c85 -442 171 -1012 219 -1445 l7 -63 1393 0 1394 0 5 43 c3
23 8 89 11 147 38 695 168 2126 300 3316 45 412 51 439 107 491 36 34 108 63
159 63 95 0 196 -82 213 -173 12 -70 186 -1953 250 -2717 50 -586 65 -808 76
-1068 7 -170 15 -248 30 -312 59 -243 205 -395 409 -430 209 -35 427 98 495
303 33 100 36 176 26 719 -10 545 -19 780 -45 1203 -84 1327 -280 2399 -579
3160 -70 176 -213 463 -301 599 -177 278 -393 496 -615 621 -142 80 -344 145
-495 160 l-70 6 -98 -65 c-249 -164 -545 -283 -857 -343 -185 -35 -494 -43
-691 -18 -490 62 -959 284 -1304 616 -36 35 -78 65 -105 75 -64 23 -202 28
-270 9z"/>
<path d="M10659 7439 c-205 -165 -381 -321 -529 -469 -130 -130 -266 -280
-215 -239 151 123 203 158 336 224 112 57 236 99 354 120 l91 17 43 215 c23
118 40 217 38 219 -3 3 -56 -37 -118 -87z"/>
<path d="M10690 6635 c-95 -21 -206 -62 -280 -103 -303 -166 -500 -495 -500
-838 0 -365 212 -695 551 -858 146 -71 227 -89 394 -89 119 0 155 4 240 27
346 91 597 337 697 682 20 69 23 101 22 244 0 150 -3 173 -27 253 -53 172
-132 301 -263 428 -126 121 -245 190 -415 240 -97 28 -323 36 -419 14z"/>
</g>
</svg>
